# xmcd
#
# Track frame offsets:
#	150
#	10990
#	28849
#	44235
#	55617
#	68426
#	83144
#	96223
#	115842
#	128278
#	141642
#	153054
#
# Disc length: 2352 seconds
# Revision: 3
# Processed by: cddbd v1.5.2PL0 Copyright (c) Steve Scherf et al.
# Submitted via: dBpowerAMP V12.0
#
DISCID=97092e0c
DTITLE=David John and the Comstock Cowboys - Christmas In The Sierra
DYEAR=1900
DGENRE=Country
TTITLE0=Silent Night
TTITLE1=Christmas In My Home Town
TTITLE2=Christmas In The Sierra
TTITLE3=Jingle Bells
TTITLE4=Christmas On The Trail
TTITLE5=Winter Wonderland/Carol Of The Bells
TTITLE6=Down Bethlehem Way
TTITLE7=Fiddletown
TTITLE8=The Beautiful Christmas Waltz
TTITLE9=Christmas The Cowboy Way/Beer Barrel Polka
TTITLE10=When Winter Comes To Tahoe
TTITLE11=A Rancher's Christmas Prayer
EXTD=
EXTT0=
EXTT1=
EXTT2=
EXTT3=
EXTT4=
EXTT5=
EXTT6=
EXTT7=
EXTT8=
EXTT9=
EXTT10=
EXTT11=
PLAYORDER=
